<svg xmlns="http://www.w3.org/2000/svg" viewBox="0 0 1417.32 324.01" width="300" height="69">
    <path d="M483,223.13c-7.74.31-16.46-.09-22.73-2.59-14.62-5.81-23.89-22.73-33.71-36-12.55-17-25.88-36-46.71-41.83-15.14-4.24-31.83-1.35-46.43,1.93s-29.89,8.37-45.87,4.83c-11.66-2.59-22.58-11.85-30.4-21.88-3.64-4.67-7-9.61-10.4-14.51A135.78,135.78,0,0,0,229.21,92c-3.55-3.39-7-6.87-10.74-10-12.64-10.61-26.88-13.71-42.25-13.61-8.78,0-17.31,2.74-25.95,4.15v5a65.6,65.6,0,0,1,9.65-1.39c23.32-1.78,36.3,14.3,47.53,28.32,5.12,6.39,10.06,12.87,14.65,19.63,9.63,14.2,19,26.66,35.92,31.53,17.8,5.15,39.81,2.84,57.21-1,9-2,17.9-4.75,26.8-5.47,16.12-1.32,25.15,5.31,34.27,13.83a166,166,0,0,1,19.07,21.88c12.55,16.69,22.4,35.23,39.52,42.16,7.23,2.93,17.32,4.12,27.42,4.16,4.95,0,14.11-.89,20.73-1.63v-6.38ZM348.46,29.43l2.2,2.79Q301.1,68.91,251.52,105.6c-1.54-2.22-3.12-4.38-4.73-6.5L345.56,26c1,1.18,2,2.34,2.9,3.44Zm21,28.66A91.82,91.82,0,0,0,377,67l-95.67,70.82a50,50,0,0,1-9.91-7.12L369.5,58.09ZM463.28,76.6c1.36-.32,3.14-.69,5.21-1.07l-82.46,61c-.92-.28-1.81-.55-2.69-.79L463.28,76.6Zm48.66,7q1.86,1.37,3.68,2.84l-97.47,72.14-3.27-3.14L511.94,83.6Zm39.18,45.24c2.29,3.23,4.64,6.31,7.13,9.17l-96.38,71.34a67.09,67.09,0,0,1-9.13-7.7l98.38-72.81ZM526.85,97c1.95,2.09,3.73,4.14,5.3,6.08L433.3,176.24c-1.59-2.19-3.21-4.32-4.88-6.39L526.85,97Zm-141-22.56a47.17,47.17,0,0,0,4.13,2.5L300.76,143l-1.13-.05a37.8,37.8,0,0,1-5.65-.5l91.88-68ZM566.41,146q1.82,1.47,3.77,2.77l-91.52,67.74c-.69-.12-1.39-.24-2.09-.39a32.74,32.74,0,0,1-3.53-1q46.69-34.54,93.37-69.11Zm-29.09-36.35c3.28,4.25,6.46,8.56,9.48,13L447.63,196c-.5-.6-1-1.21-1.46-1.82-2.81-3.59-5.45-7.35-8.07-11.13l99.22-73.45ZM288.76.6,204.27,63.13l.19.06a23,23,0,0,1,2.16,1L293.32,0c-1.56.17-3.09.37-4.56.6ZM331.9,11.67q1.75,1.47,3.41,3L236.93,87.53c-1-1-1.91-2-2.9-2.9l-.3-.29L331.9,11.67Zm31.2,37.39,2,2.89-99,73.25c-1.4-1.6-2.76-3.26-4.1-5-2-2.52-3.86-5.13-5.71-7.76Q306,75.63,355.77,38.83c2.52,3.35,5,6.75,7.33,10.23Zm-164,67.59,2.21,2.79-99.14,73.39c-1.55-2.23-3.12-4.39-4.73-6.5l98.77-73.11c1,1.17,2,2.33,2.89,3.43Zm21,28.66a92.12,92.12,0,0,0,7.52,8.88L132,225a49.58,49.58,0,0,1-9.91-7.12l98.06-72.58ZM314,163.82c1.36-.31,3.14-.69,5.2-1.07l-82.46,61c-.92-.29-1.81-.55-2.68-.79L314,163.82Zm48.65,7c1.25.92,2.48,1.86,3.68,2.84l-97.47,72.15-3.26-3.15,97.05-71.84Zm39.18,45.24c2.3,3.23,4.64,6.31,7.13,9.18l-96.37,71.33a67.13,67.13,0,0,1-9.13-7.69l98.37-72.82Zm-24.27-31.84c2,2.09,3.73,4.14,5.31,6.08L284,263.47q-2.38-3.29-4.88-6.39l98.42-72.86Zm-141-22.56c1.33.89,2.7,1.73,4.14,2.5l-89.24,66.05c-.37,0-.75,0-1.12-.05a39.13,39.13,0,0,1-5.65-.49l91.87-68Zm180.56,71.55-93.37,69.1a32.58,32.58,0,0,0,3.52,1c.7.15,1.4.27,2.1.4q45.75-33.89,91.52-67.75c-1.31-.87-2.57-1.78-3.77-2.76ZM388,196.86c3.28,4.24,6.46,8.56,9.48,13l-99.17,73.4c-.5-.6-1-1.2-1.46-1.81-2.81-3.6-5.45-7.36-8.07-11.14L388,196.86Zm-248.57-109L55,150.36l.19.06a18.74,18.74,0,0,1,2.15,1L144,87.22c-1.56.18-3.09.38-4.57.6ZM182.6,98.89c1.17,1,2.3,2,3.4,3L87.62,174.75c-.94-1-1.9-1.95-2.9-2.9l-.3-.28L182.6,98.89Zm31.2,37.39c.66,1,1.32,1.93,2,2.89l-99,73.25c-1.4-1.59-2.77-3.26-4.11-5-2-2.53-3.85-5.14-5.71-7.77l99.47-73.63c2.53,3.36,5,6.76,7.34,10.23Zm119,174.54v6.38c-6.62.74-15.78,1.65-20.73,1.63-10.1,0-20.18-1.23-27.42-4.16-17.12-6.93-27-25.47-39.52-42.15A165.37,165.37,0,0,0,226,250.64c-9.12-8.53-18.15-15.16-34.26-13.84-8.91.72-17.79,3.5-26.81,5.47-17.4,3.8-39.41,6.11-57.21,1-16.87-4.87-26.29-17.32-35.92-31.53-4.58-6.76-9.53-13.24-14.65-19.63C46,178.05,33,162,9.65,163.75A67.17,67.17,0,0,0,0,165.14v-5c8.65-1.41,17.17-4.1,26-4.15,15.36-.09,29.61,3,42.25,13.61,3.72,3.13,7.19,6.62,10.73,10a135.78,135.78,0,0,1,17.58,21.09c3.41,4.9,6.77,9.84,10.41,14.51,7.82,10,18.74,19.29,30.39,21.88,16,3.55,31.18-1.53,45.88-4.83s31.29-6.17,46.43-1.93c20.82,5.83,34.15,24.84,46.7,41.83,9.82,13.31,19.09,30.23,33.71,36.05C316.32,310.73,325,311.13,332.77,310.82Z"
          style="fill:#d00b10;fill-rule:evenodd"/>
    <path d="M773.69,88.47c10.3-10,23.21-15.37,39.55-16.25a50.61,50.61,0,0,1,28.36,6.72c9,5.22,17.58,15.78,19,28.51.83,7.6-.22,16.59-7.59,24.82,11.33,7.93,18.77,21.95,18.77,38.34,0,14.57-6.15,27.64-14.12,34.95-11.13,10.18-26.27,15.72-43.57,15.55-17.9-.18-37.8-7.75-49-21.39a1.77,1.77,0,0,1-.17-2.42c5.42-6.33,8.29-9.73,16.23-19,8.39,10.26,19,15,32.28,14.32,9.79-.47,18.27-6.38,20.16-17.69,1.91-11.52-4.29-23-17.28-25.08a97.8,97.8,0,0,0-11.13-1.38c0-6.68,0-14,0-23,3.71,0,9.93-.9,13.44-2.45,6-2.65,9.28-5.8,10.15-11.64,1.38-9.22-4.39-15.59-10.19-17.13-8.88-2.34-20.31-.38-29.6,10.43-6.1-6.27-8.56-8.63-15.19-15.4a.51.51,0,0,1,0-.8ZM667.54,322.61c-5.1,1.1-8.3,1.4-15.77,1.4-21.22,0-32.14-15.48-32.14-35.84,0-24.39,14.93-38,33.51-38a74.2,74.2,0,0,1,14.41,1.16l-2.84,12.84a56.41,56.41,0,0,0-10.93-.64c-11,.22-19.59,7.75-19.59,23.65,0,14.32,7,23,19.68,23.34a68.7,68.7,0,0,0,11.57-.56l2.1,12.62Zm209.28-80.23H865.39v18s8.07-8.27,10.55-10.91a3.64,3.64,0,0,0,.91-2.18c0-.46,0-4.94,0-4.94Zm-17.85,9v21.21c0,11.47-.18,22.81-.73,32.35h.38c3.19-8.37,7.28-17.81,10.92-25.45l13.2-28.11H897v71.49H884.2V301.74c0-11,.18-20.78,1-30.12h-.27a222,222,0,0,1-10.38,25.45l-12.48,25.78H846.23V251.36Zm-66.21,36c0,14,5.65,23.86,14.93,23.86s14.76-10.39,14.76-24.28c0-12.84-5.28-23.86-14.85-23.86-9.38,0-14.84,10.38-14.84,24.28Zm44.35-.95C837.11,309.81,824.9,324,807,324c-18.2,0-28.86-16-28.86-36.37,0-21.43,11.74-37.44,29.87-37.44,18.86,0,29.14,16.44,29.14,36.17ZM742,284.78a18.84,18.84,0,0,0,4.65.41c7.38,0,11.93-4.34,11.93-11.65,0-6.59-3.92-10.5-10.85-10.5a20,20,0,0,0-5.73.64v21.1Zm-13.76-32.46A98.87,98.87,0,0,1,747,250.84c8.56,0,14.67,1.9,18.77,5.72,3.91,3.61,6.55,9.55,6.55,16.55s-2,12.94-5.65,17c-4.73,5.2-11.75,7.53-19.94,7.53a31.72,31.72,0,0,1-4.74-.32v25.56H728.27V252.32Zm-38.06,12.62H673.72V251.36h47.17v13.58H704.14v57.91H690.21V264.94Zm539-99.64,18.67-54,15.24,54Zm61.82-34-4.43-15.73c-3.49-13.11-4.74-16.57-6.51-22-4.27-13.16-15.51-21.39-34.68-21.82h-38.52c-.38,0-.31,1-.14,1.16.34.41,9,4.4,9,17.72,0,4.45-2.17,11.1-3.45,15l-39.42,114h37.51l8.88-25.69h52l7.26,25.69H1316l-25-88.34Zm-348,60c-18.2,0-30.52-18.9-30.52-44.22,0-27.75,11.54-46.17,30.52-46.34,19,.17,30.5,18.59,30.5,46.34,0,25.32-12.31,44.22-30.5,44.22Zm0-119.46c-37.6.18-66.41,31.23-66.41,76.28,0,46.91,32,73,66.41,73s66.4-26.09,66.4-73c0-45.05-28.8-76.1-66.4-76.28Zm474.33,1.77V102h-42.78V219.66H1336V102h-37.51s-3.08-10.7-5.22-16.55c-2.28-6.21-5.93-10-7.44-11.09-.61-.43-.21-.79,0-.79Zm-292.6,0-33.14,37.77L1058.46,73.6H1020V219.66h38.51V115.51a9.17,9.17,0,0,0,2.31,4.52c8.12,8.49,30.81,31.44,30.81,31.44s23.47-23.29,30.84-31.44a10.31,10.31,0,0,0,2.3-4.38v104h38.52V73.6ZM762.39,217.73a43.34,43.34,0,0,1-8.65-7.28,19.29,19.29,0,0,1-4.53-12.86V73.6H710.69V190.9C695,194,684,192.33,675.48,188.79c-9.12-3.79-16.8-11.73-16.8-37.46V73.6H620.15v86.27A81.92,81.92,0,0,0,626,190c6.19,14.9,18.5,23.45,33.54,27,5.51,1.28,15.39,1.89,20.8,1.89h81.92C762.62,218.88,762.56,217.91,762.39,217.73Z"
          style="fill:#1d1d1b;fill-rule:evenodd"/>
</svg>